#!OML:ASF I:\Actors\actors\Patient Classification 2\Patient 1\Session 1\actor1.ASF
:FULLY-SPECIFIED
:DEGREES
105
root -0.569231 18.7048 5.50198 2.27468 -3.67945 -1.98611
lowerback -0.174214 0.818681 0.214732
upperback -1.47229 1.10074 0.641138
thorax -1.41795 0.551865 0.52423
lowerneck -12.6062 -2.19135 -2.6741
upperneck 31.6884 -3.49908 2.96883
head 12.7214 -1.49849 1.09927
rclavicle -3.65112e-015 8.15017e-015
rhumerus -44.076 13.3894 -92.9205
rradius 65.5166
rwrist 13.3332
rhand -9.99301 -46.0519
rfingers 7.12502
rthumb 15.9904 -75.412
lclavicle -3.65112e-015 8.15017e-015
lhumerus -34.5382 -22.5961 92.933
lradius 66.7924
lwrist 8.4626
lhand -4.53374 -30.1911
lfingers 7.12502
lthumb 21.2413 -1.33499
rfemur 0 0 0
rtibia 0
rfoot 0 0
rtoes 0
lfemur -5.09216 -6.16005 -12.898
ltibia 21.9625
lfoot -24.0846 16.6283
ltoes -54.3662
106
root -0.570336 18.7038 5.49441 2.1693 -3.62798 -2.04084
lowerback -0.0924873 0.774256 0.203247
upperback -1.47341 1.04208 0.653568
thorax -1.46494 0.522775 0.542795
lowerneck -12.645 -2.19696 -2.71458
upperneck 32.0059 -3.49805 2.93853
head 12.8627 -1.50537 1.09666
rclavicle -2.2194e-014 -4.96962e-015
rhumerus -43.441 14.2934 -93.0115
rradius 67.5162
rwrist 13.263
rhand -11.2114 -45.6214
rfingers 7.12502
rthumb 14.8168 -75.0717
lclavicle -2.2194e-014 -4.96962e-015
lhumerus -32.9834 -23.5062 92.3296
lradius 68.2378
lwrist 7.93311
lhand -3.76059 -30.6304
lfingers 7.12502
lthumb 21.9838 -1.85969
rfemur 0 0 0
rtibia 0
rfoot 0 0
rtoes 0
lfemur -5.01113 -6.10365 -12.8287
ltibia 21.9641
lfoot -23.9584 16.5863
ltoes -54.4934
107
root -0.569887 18.702 5.48682 2.08848 -3.68052 -2.05322
lowerback -0.0435923 0.753686 0.175107
upperback -1.47364 1.01458 0.641913
thorax -1.49266 0.509303 0.546245
lowerneck -12.622 -2.21455 -2.74086
upperneck 32.2308 -3.52096 2.92057
head 12.9535 -1.52091 1.09263
rclavicle -1.71141e-014 2.98177e-016
rhumerus -42.7596 15.2334 -93.1303
rradius 69.5609
rwrist 13.1022
rhand -13.5997 -44.8351
rfingers 7.12502
rthumb 12.5151 -74.4403
lclavicle -1.71141e-014 2.98177e-016
lhumerus -31.3354 -24.3305 91.6935
lradius 69.4673
lwrist 7.53386
lhand -3.22101 -31.0166
lfingers 7.12502
lthumb 22.5018 -2.30771
rfemur 0 0 0
rtibia 0
rfoot 0 0
rtoes 0
lfemur -4.91501 -6.04525 -12.8244
ltibia 21.9223
lfoot -23.8987 16.6016
ltoes -54.5118
108
root -0.566683 18.7022 5.4784 2.0846 -3.85034 -2.02178
lowerback -0.0779716 0.771645 0.150798
upperback -1.46451 1.03755 0.599577
thorax -1.46383 0.520776 0.516811
lowerneck -12.5842 -2.23214 -2.75858
upperneck 32.3473 -3.54815 2.91959
head 12.9961 -1.53574 1.0924
rclavicle 2.1197e-014 2.78299e-015
rhumerus -41.966 16.1988 -93.2637
rradius 71.5599
rwrist 12.7403
rhand -15.1099 -45.1268
rfingers 7.12502
rthumb 11.0587 -74.8155
lclavicle 2.1197e-014 2.78299e-015
lhumerus -29.6323 -25.1455 91.0157
lradius 70.4403
lwrist 7.12905
lhand -2.84981 -31.6605
lfingers 7.12502
lthumb 22.8581 -2.99513
rfemur 0 0 0
rtibia 0
rfoot 0 0
rtoes 0
lfemur -4.89936 -6.03461 -12.8924
ltibia 21.9159
lfoot -24.0066 16.6776
ltoes -54.3967
109
root -0.592862 18.6984 5.49715 1.77955 -2.81596 -1.95352
lowerback -0.246268 0.375915 -0.311333
upperback -1.27444 0.506192 0.655727
thorax -1.17487 0.260081 0.841634
lowerneck -12.6287 -2.23734 -2.74324
upperneck 32.4717 -3.54418 2.85814
head 13.0566 -1.53973 1.06668
rclavicle 2.9973e-016 -5.96354e-016
rhumerus -41.2465 17.162 -93.4438
rradius 73.5904
rwrist 12.2723
rhand -16.1617 -46.0862
rfingers 7.12502
rthumb 10.0441 -75.8265
lclavicle 2.9973e-016 -5.96354e-016
lhumerus -27.9221 -25.9263 90.3084
lradius 71.2772
lwrist 6.8067
lhand -2.09361 -32.1924
lfingers 7.12502
lthumb 23.5836 -3.61854
rfemur 0 0 0
rtibia 0
rfoot 0 0
rtoes 0
lfemur -4.72206 -5.87005 -12.7079
ltibia 21.9066
lfoot -23.4332 15.6856
ltoes -54.7449
110
root -0.563494 18.7049 5.46711 2.10701 -4.01187 -1.98424
lowerback -0.190112 0.724076 0.0739594
upperback -1.4318 0.972225 0.549126
thorax -1.36723 0.488653 0.510815
lowerneck -12.6817 -2.23086 -2.77662
upperneck 32.5664 -3.53422 2.87272
head 13.1091 -1.53726 1.0797
rclavicle -6.39683e-015 4.96962e-016
rhumerus -40.5337 18.0727 -93.5922
rradius 75.5717
rwrist 12.1592
rhand -16.6355 -46.6541
rfingers 7.12502
rthumb 9.58703 -76.416
lclavicle -6.39683e-015 4.96962e-016
lhumerus -26.1675 -26.562 89.5781
lradius 71.94
lwrist 6.43962
lhand -1.11515 -32.5208
lfingers 7.12502
lthumb 24.5218 -4.07088
rfemur 0 0 0
rtibia 0
rfoot 0 0
rtoes 0
lfemur -4.9444 -5.86077 -12.9411
ltibia 21.9225
lfoot -23.9797 16.6758
ltoes -54.4472
111
root -0.56297 18.7072 5.45797 2.2786 -4.57696 -2.0383
lowerback -0.333637 0.86547 0.0629645
upperback -1.47292 1.16032 0.547837
thorax -1.3307 0.582827 0.515714
lowerneck -12.6175 -2.20208 -2.76251
upperneck 32.4793 -3.49911 2.88494
head 13.0567 -1.52005 1.08712
rclavicle 4.00831e-015 -3.8763e-015
rhumerus -39.7285 18.9542 -93.657
rradius 77.4314
rwrist 12.2472
rhand -16.633 -46.9357
rfingers 7.12502
rthumb 9.58947 -76.6975
lclavicle 4.00831e-015 -3.8763e-015
lhumerus -24.4081 -27.1467 88.866
lradius 72.3569
lwrist 5.7346
lhand -0.565157 -32.7852
lfingers 7.12502
lthumb 25.0489 -4.40775
rfemur 0 0 0
rtibia 0
rfoot 0 0
rtoes 0
lfemur -5.04554 -5.62731 -12.9303
ltibia 21.9446
lfoot -24.1707 16.922
ltoes -54.3333
112
root -0.562469 18.7059 5.45969 2.15082 -4.21302 -2.04763
lowerback -0.347704 0.703885 0.0468402
upperback -1.39427 0.944291 0.548804
thorax -1.24056 0.474875 0.528389
lowerneck -12.5231 -2.16102 -2.68138
upperneck 32.3122 -3.43562 2.82015
head 12.9598 -1.49266 1.05673
rclavicle -4.67455e-016 -2.98177e-015
rhumerus -38.9445 19.8384 -93.6609
rradius 79.2899
rwrist 12.2746
rhand -16.765 -47.0835
rfingers 7.12502
rthumb 9.46211 -76.8511
lclavicle -4.67455e-016 -2.98177e-015
lhumerus -22.725 -27.7372 88.2027
lradius 72.6261
lwrist 5.08
lhand -0.0731017 -32.7991
lfingers 7.12502
lthumb 25.5204 -4.48832
rfemur 0 0 0
rtibia 0
rfoot 0 0
rtoes 0
lfemur -4.99326 -5.72506 -12.8783
ltibia 21.9738
lfoot -24.0152 16.7184
ltoes -54.4538
113
root -0.556488 18.7045 5.46066 2.02624 -3.78919 -2.07595
lowerback -0.318421 0.514501 0.12416
upperback -1.32183 0.691761 0.549143
thorax -1.17954 0.347667 0.487453
lowerneck -12.5232 -2.13569 -2.63402
upperneck 32.2431 -3.38575 2.74843
head 12.9263 -1.47496 1.02738
rclavicle -8.83505e-015 7.45443e-015
rhumerus -38.176 20.715 -93.5992
rradius 81.1169
rwrist 12.3453
rhand -16.9028 -47.2166
rfingers 7.12502
rthumb 9.32909 -76.9902
lclavicle -8.83505e-015 7.45443e-015
lhumerus -21.1301 -28.2305 87.5728
lradius 72.7929
lwrist 4.58264
lhand 0.65369 -32.6733
lfingers 7.12502
lthumb 26.2163 -4.46404
rfemur 0 0 0
rtibia 0
rfoot 0 0
rtoes 0
lfemur -4.94051 -5.86887 -12.8168
ltibia 21.9466
lfoot -23.8119 16.5079
ltoes -54.5869
114
root -0.576297 18.7029 5.4766 1.93809 -3.1675 -2.05899
lowerback -0.569437 0.255665 -0.237195
upperback -1.23648 0.345322 0.623151
thorax -0.951347 0.178012 0.769663
lowerneck -12.4609 -2.11997 -2.57709
upperneck 32.2069 -3.35076 2.66283
head 12.8934 -1.46505 0.989606
rclavicle 9.0944e-015 9.93923e-017
rhumerus -37.4121 21.5231 -93.5058
rradius 82.78
rwrist 12.5161
rhand -17.0541 -47.5295
rfingers 7.12502
rthumb 9.1831 -77.3095
lclavicle 9.0944e-015 9.93923e-017
lhumerus -19.7037 -28.6364 87.0403
lradius 72.9006
lwrist 4.00641
lhand 1.35358 -32.3896
lfingers 7.12502
lthumb 26.8862 -4.2816
rfemur 0 0 0
rtibia 0
rfoot 0 0
rtoes 0
lfemur -4.90142 -5.65884 -12.6413
ltibia 21.9106
lfoot -23.3864 15.8328
ltoes -54.8482
115
root -0.581178 18.7033 5.48099 1.90038 -2.98532 -2.00342
lowerback -0.682113 0.149006 -0.428195
upperback -1.22929 0.20311 0.6217
thorax -0.879371 0.108391 0.875977
lowerneck -12.2806 -2.09005 -2.46196
upperneck 32.1288 -3.313 2.58171
head 12.8164 -1.44766 0.944752
rclavicle -3.86698e-015 4.96962e-015
rhumerus -36.616 22.2939 -93.4173
rradius 84.2486
rwrist 12.7129
rhand -17.1915 -47.9603
rfingers 7.12502
rthumb 9.05057 -77.7461
lclavicle -3.86698e-015 4.96962e-015
lhumerus -18.4968 -28.9752 86.6115
lradius 72.9899
lwrist 3.36041
lhand 1.97739 -32.0451
lfingers 7.12502
lthumb 27.483 -4.03051
rfemur 0 0 0
rtibia 0
rfoot 0 0
rtoes 0
lfemur -4.87511 -5.63279 -12.6552
ltibia 21.9007
lfoot -23.2586 15.6745
ltoes -54.9519
116
root -0.572939 18.705 5.47133 1.89888 -3.33743 -1.98504
lowerback -0.574487 0.212346 -0.3825
upperback -1.26821 0.287178 0.572804
thorax -0.980607 0.150195 0.799692
lowerneck -12.1884 -2.06026 -2.31949
upperneck 32.0856 -3.28281 2.50233
head 12.773 -1.42916 0.894102
rclavicle -4.9634e-015 9.14409e-015
rhumerus -35.6863 22.9963 -93.2352
rradius 85.6064
rwrist 13.3099
rhand -16.5373 -48.8495
rfingers 7.12502
rthumb 9.68181 -78.6069
lclavicle -4.9634e-015 9.14409e-015
lhumerus -17.4252 -29.183 86.2079
lradius 73.0424
lwrist 2.68484
lhand 2.67158 -32.0117
lfingers 7.12502
lthumb 28.1467 -4.10442
rfemur 0 0 0
rtibia 0
rfoot 0 0
rtoes 0
lfemur -4.80934 -5.60181 -12.755
ltibia 21.855
lfoot -23.3662 15.9365
ltoes -54.8333
117
root -0.551283 18.7083 5.44736 1.98573 -4.1533 -1.99243
lowerback -0.287653 0.435111 -0.111951
upperback -1.36211 0.584559 0.490454
thorax -1.239 0.29639 0.560006
lowerneck -12.2155 -2.06243 -2.26348
upperneck 32.0991 -3.29151 2.46882
head 12.7829 -1.43093 0.869775
rclavicle 2.48481e-015 -2.18663e-015
rhumerus -34.5943 23.5267 -92.8834
rradius 86.761
rwrist 14.4502
rhand -14.993 -49.7176
rfingers 7.12502
rthumb 11.1715 -79.4002
lclavicle 2.48481e-015 -2.18663e-015
lhumerus -16.4148 -29.2849 85.8554
lradius 73.039
lwrist 2.11505
lhand 3.45817 -32.0787
lfingers 7.12502
lthumb 28.8983 -4.2975
rfemur 0 0 0
rtibia 0
rfoot 0 0
rtoes 0
lfemur -4.80447 -5.66934 -12.9541
ltibia 21.8301
lfoot -23.757 16.6406
ltoes -54.5028
118
root -0.566786 18.7066 5.46168 1.81762 -3.31931 -1.96736
lowerback -0.393668 0.109769 -0.356694
upperback -1.23258 0.149767 0.527793
thorax -1.04298 0.0810907 0.739234
lowerneck -12.2697 -2.07631 -2.27555
upperneck 32.0834 -3.30915 2.47085
head 12.7888 -1.43998 0.86937
rclavicle 4.72735e-015 8.54774e-015
rhumerus -33.5246 24.0724 -92.6259
rradius 87.6236
rwrist 15.006
rhand -14.8579 -49.2521
rfingers 7.12502
rthumb 11.3018 -78.9276
lclavicle 4.72735e-015 8.54774e-015
lhumerus -15.4241 -29.4016 85.5445
lradius 72.9862
lwrist 1.75792
lhand 4.1125 -31.8747
lfingers 7.12502
lthumb 29.5231 -4.20213
rfemur 0 0 0
rtibia 0
rfoot 0 0
rtoes 0
lfemur -4.7354 -5.67173 -12.8004
ltibia 21.7931
lfoot -23.3293 15.95
ltoes -54.7235
119
root -0.575215 18.7059 5.47005 1.79755 -3.39003 -1.97231
lowerback -0.531768 0.0856887 -0.489533
upperback -1.16043 0.11764 0.538905
thorax -0.891499 0.0656063 0.825501
lowerneck -12.2848 -2.07581 -2.26285
upperneck 31.9962 -3.30798 2.46573
head 12.7551 -1.43933 0.864668
rclavicle -7.53518e-015 4.57205e-015
rhumerus -32.556 24.6767 -92.4912
rradius 88.3761
rwrist 15.0799
rhand -15.6267 -48.7989
rfingers 7.12502
rthumb 10.5602 -78.5136
lclavicle -7.53518e-015 4.57205e-015
lhumerus -14.5091 -29.498 85.2827
lradius 72.9082
lwrist 1.45736
lhand 4.63327 -31.5278
lfingers 7.12502
lthumb 30.0201 -3.94419
rfemur 0 0 0
rtibia 0
rfoot 0 0
rtoes 0
lfemur -4.63216 -5.44335 -12.7499
ltibia 21.7395
lfoot -23.2706 15.7975
ltoes -54.7881
